# xmcd
# Track frame offsets:
# 150
# 20223
# 42161
# 60321
#
# Disc length: 1067 seconds
# Revision: 0
# Processed by: cddbd v1.5.2PL0 Copyright (c) Steve Scherf et al.
# Submitted via: VisiTrax 2.10.3.257 - For more info visit www.synapsa.com
#
DISCID=2c042904
DTITLE=Storm Warning - 1st EP
DYEAR=2006
DGENRE=Blues
TTITLE0=Prison Of Love
TTITLE1=She Moves Me
TTITLE2=Right As Rain
TTITLE3=Love So Deep
EXTD=
EXTT0=
EXTT1=
EXTT2=
EXTT3=
PLAYORDER=
